<mxfile host="app.diagrams.net" modified="2021-09-22T12:18:04.675Z" agent="5.0 (Windows NT 10.0; Win64; x64) AppleWebKit/537.36 (KHTML, like Gecko) Chrome/93.0.4577.82 Safari/537.36" etag="rPpmlx-5AOKoD-GeOS_l" version="15.2.9" type="github">
  <diagram id="R2lEEEUBdFMjLlhIrx00" name="Page-1">
    <mxGraphModel dx="2448" dy="713" grid="1" gridSize="10" guides="1" tooltips="1" connect="1" arrows="1" fold="1" page="1" pageScale="1" pageWidth="850" pageHeight="1100" math="0" shadow="0" extFonts="Permanent Marker^https://fonts.googleapis.com/css?family=Permanent+Marker">
      <root>
        <mxCell id="0" />
        <mxCell id="1" parent="0" />
        <mxCell id="QF62n-E6mhdTdz_LAiA7-14" style="edgeStyle=orthogonalEdgeStyle;rounded=0;orthogonalLoop=1;jettySize=auto;html=1;exitX=0;exitY=0.5;exitDx=0;exitDy=0;entryX=1;entryY=0.5;entryDx=0;entryDy=0;" edge="1" parent="1" source="QF62n-E6mhdTdz_LAiA7-1" target="QF62n-E6mhdTdz_LAiA7-6">
          <mxGeometry relative="1" as="geometry">
            <mxPoint x="-30" y="140" as="targetPoint" />
          </mxGeometry>
        </mxCell>
        <mxCell id="QF62n-E6mhdTdz_LAiA7-15" style="edgeStyle=orthogonalEdgeStyle;rounded=0;orthogonalLoop=1;jettySize=auto;html=1;exitX=1;exitY=0.5;exitDx=0;exitDy=0;" edge="1" parent="1" source="QF62n-E6mhdTdz_LAiA7-1">
          <mxGeometry relative="1" as="geometry">
            <mxPoint x="340" y="135" as="targetPoint" />
          </mxGeometry>
        </mxCell>
        <mxCell id="QF62n-E6mhdTdz_LAiA7-34" style="edgeStyle=orthogonalEdgeStyle;rounded=0;orthogonalLoop=1;jettySize=auto;html=1;exitX=0.5;exitY=1;exitDx=0;exitDy=0;entryX=0.5;entryY=0;entryDx=0;entryDy=0;" edge="1" parent="1" source="QF62n-E6mhdTdz_LAiA7-1" target="QF62n-E6mhdTdz_LAiA7-27">
          <mxGeometry relative="1" as="geometry" />
        </mxCell>
        <mxCell id="QF62n-E6mhdTdz_LAiA7-37" style="edgeStyle=orthogonalEdgeStyle;rounded=0;orthogonalLoop=1;jettySize=auto;html=1;exitX=0.75;exitY=1;exitDx=0;exitDy=0;entryX=0.5;entryY=0;entryDx=0;entryDy=0;" edge="1" parent="1" source="QF62n-E6mhdTdz_LAiA7-1" target="QF62n-E6mhdTdz_LAiA7-35">
          <mxGeometry relative="1" as="geometry" />
        </mxCell>
        <mxCell id="QF62n-E6mhdTdz_LAiA7-1" value="User" style="swimlane;fillColor=#FFFF99;" vertex="1" parent="1">
          <mxGeometry x="90" y="35" width="200" height="200" as="geometry" />
        </mxCell>
        <mxCell id="QF62n-E6mhdTdz_LAiA7-3" value="PW" style="text;html=1;align=center;verticalAlign=middle;resizable=0;points=[];autosize=1;strokeColor=none;fillColor=none;" vertex="1" parent="QF62n-E6mhdTdz_LAiA7-1">
          <mxGeometry x="5" y="60" width="30" height="20" as="geometry" />
        </mxCell>
        <mxCell id="QF62n-E6mhdTdz_LAiA7-2" value="ID" style="text;html=1;align=center;verticalAlign=middle;resizable=0;points=[];autosize=1;strokeColor=none;fillColor=none;" vertex="1" parent="QF62n-E6mhdTdz_LAiA7-1">
          <mxGeometry x="5" y="30" width="30" height="20" as="geometry" />
        </mxCell>
        <mxCell id="QF62n-E6mhdTdz_LAiA7-5" value="전화번호" style="text;html=1;align=center;verticalAlign=middle;resizable=0;points=[];autosize=1;strokeColor=none;fillColor=none;" vertex="1" parent="QF62n-E6mhdTdz_LAiA7-1">
          <mxGeometry y="120" width="60" height="20" as="geometry" />
        </mxCell>
        <mxCell id="QF62n-E6mhdTdz_LAiA7-4" value="이름" style="text;html=1;align=center;verticalAlign=middle;resizable=0;points=[];autosize=1;strokeColor=none;fillColor=none;" vertex="1" parent="QF62n-E6mhdTdz_LAiA7-1">
          <mxGeometry y="90" width="40" height="20" as="geometry" />
        </mxCell>
        <mxCell id="QF62n-E6mhdTdz_LAiA7-6" value="주소" style="swimlane;startSize=23;" vertex="1" parent="1">
          <mxGeometry x="-40" y="80" width="80" height="110" as="geometry" />
        </mxCell>
        <mxCell id="QF62n-E6mhdTdz_LAiA7-7" value="ID" style="text;html=1;align=center;verticalAlign=middle;resizable=0;points=[];autosize=1;strokeColor=none;fillColor=none;" vertex="1" parent="1">
          <mxGeometry x="-25" y="110" width="30" height="20" as="geometry" />
        </mxCell>
        <mxCell id="QF62n-E6mhdTdz_LAiA7-8" value="주소" style="text;html=1;align=center;verticalAlign=middle;resizable=0;points=[];autosize=1;strokeColor=none;fillColor=none;" vertex="1" parent="1">
          <mxGeometry x="-30" y="140" width="40" height="20" as="geometry" />
        </mxCell>
        <mxCell id="QF62n-E6mhdTdz_LAiA7-16" style="edgeStyle=orthogonalEdgeStyle;rounded=0;orthogonalLoop=1;jettySize=auto;html=1;exitX=1;exitY=0.5;exitDx=0;exitDy=0;entryX=0;entryY=0.5;entryDx=0;entryDy=0;" edge="1" parent="1" source="QF62n-E6mhdTdz_LAiA7-9" target="QF62n-E6mhdTdz_LAiA7-12">
          <mxGeometry relative="1" as="geometry" />
        </mxCell>
        <mxCell id="QF62n-E6mhdTdz_LAiA7-9" value="주문" style="swimlane;startSize=23;" vertex="1" parent="1">
          <mxGeometry x="340" y="70" width="90" height="130" as="geometry" />
        </mxCell>
        <mxCell id="QF62n-E6mhdTdz_LAiA7-10" value="주문번호" style="text;html=1;align=center;verticalAlign=middle;resizable=0;points=[];autosize=1;strokeColor=none;fillColor=none;" vertex="1" parent="QF62n-E6mhdTdz_LAiA7-9">
          <mxGeometry x="5" y="30" width="60" height="20" as="geometry" />
        </mxCell>
        <mxCell id="QF62n-E6mhdTdz_LAiA7-11" value="유저ID" style="text;html=1;align=center;verticalAlign=middle;resizable=0;points=[];autosize=1;strokeColor=none;fillColor=none;" vertex="1" parent="QF62n-E6mhdTdz_LAiA7-9">
          <mxGeometry x="5" y="60" width="50" height="20" as="geometry" />
        </mxCell>
        <mxCell id="QF62n-E6mhdTdz_LAiA7-12" value="주문목록" style="swimlane;startSize=23;" vertex="1" parent="1">
          <mxGeometry x="510" y="35" width="100" height="200" as="geometry" />
        </mxCell>
        <mxCell id="QF62n-E6mhdTdz_LAiA7-18" value="주문번호" style="text;html=1;align=center;verticalAlign=middle;resizable=0;points=[];autosize=1;strokeColor=none;fillColor=none;" vertex="1" parent="QF62n-E6mhdTdz_LAiA7-12">
          <mxGeometry y="30" width="60" height="20" as="geometry" />
        </mxCell>
        <mxCell id="QF62n-E6mhdTdz_LAiA7-19" value="디자이너" style="text;html=1;align=center;verticalAlign=middle;resizable=0;points=[];autosize=1;strokeColor=none;fillColor=none;" vertex="1" parent="QF62n-E6mhdTdz_LAiA7-12">
          <mxGeometry y="60" width="60" height="20" as="geometry" />
        </mxCell>
        <mxCell id="QF62n-E6mhdTdz_LAiA7-20" value="주문일시" style="text;html=1;align=center;verticalAlign=middle;resizable=0;points=[];autosize=1;strokeColor=none;fillColor=none;" vertex="1" parent="QF62n-E6mhdTdz_LAiA7-12">
          <mxGeometry y="85" width="60" height="20" as="geometry" />
        </mxCell>
        <mxCell id="QF62n-E6mhdTdz_LAiA7-21" value="결제가격" style="text;html=1;align=center;verticalAlign=middle;resizable=0;points=[];autosize=1;strokeColor=none;fillColor=none;" vertex="1" parent="QF62n-E6mhdTdz_LAiA7-12">
          <mxGeometry y="110" width="60" height="20" as="geometry" />
        </mxCell>
        <mxCell id="QF62n-E6mhdTdz_LAiA7-22" value="결제수단" style="text;html=1;align=center;verticalAlign=middle;resizable=0;points=[];autosize=1;strokeColor=none;fillColor=none;" vertex="1" parent="QF62n-E6mhdTdz_LAiA7-12">
          <mxGeometry y="140" width="60" height="20" as="geometry" />
        </mxCell>
        <mxCell id="QF62n-E6mhdTdz_LAiA7-23" value="요청사항" style="text;html=1;align=center;verticalAlign=middle;resizable=0;points=[];autosize=1;strokeColor=none;fillColor=none;" vertex="1" parent="QF62n-E6mhdTdz_LAiA7-12">
          <mxGeometry y="170" width="60" height="20" as="geometry" />
        </mxCell>
        <mxCell id="QF62n-E6mhdTdz_LAiA7-17" style="edgeStyle=orthogonalEdgeStyle;rounded=0;orthogonalLoop=1;jettySize=auto;html=1;exitX=0;exitY=0.5;exitDx=0;exitDy=0;entryX=1;entryY=0.5;entryDx=0;entryDy=0;" edge="1" parent="1" source="QF62n-E6mhdTdz_LAiA7-13" target="QF62n-E6mhdTdz_LAiA7-12">
          <mxGeometry relative="1" as="geometry" />
        </mxCell>
        <mxCell id="QF62n-E6mhdTdz_LAiA7-13" value="주문 메뉴" style="swimlane;startSize=20;" vertex="1" parent="1">
          <mxGeometry x="680" y="50" width="90" height="170" as="geometry" />
        </mxCell>
        <mxCell id="QF62n-E6mhdTdz_LAiA7-24" value="주문번호" style="text;html=1;align=center;verticalAlign=middle;resizable=0;points=[];autosize=1;strokeColor=none;fillColor=none;" vertex="1" parent="QF62n-E6mhdTdz_LAiA7-13">
          <mxGeometry y="30" width="60" height="20" as="geometry" />
        </mxCell>
        <mxCell id="QF62n-E6mhdTdz_LAiA7-25" value="스타일 명" style="text;html=1;align=center;verticalAlign=middle;resizable=0;points=[];autosize=1;strokeColor=none;fillColor=none;" vertex="1" parent="QF62n-E6mhdTdz_LAiA7-13">
          <mxGeometry y="60" width="70" height="20" as="geometry" />
        </mxCell>
        <mxCell id="QF62n-E6mhdTdz_LAiA7-26" value="가격" style="text;html=1;align=center;verticalAlign=middle;resizable=0;points=[];autosize=1;strokeColor=none;fillColor=none;" vertex="1" parent="QF62n-E6mhdTdz_LAiA7-13">
          <mxGeometry y="90" width="40" height="20" as="geometry" />
        </mxCell>
        <mxCell id="QF62n-E6mhdTdz_LAiA7-27" value="리뷰" style="swimlane;fillColor=#FFFFFF;" vertex="1" parent="1">
          <mxGeometry x="125" y="330" width="130" height="170" as="geometry" />
        </mxCell>
        <mxCell id="QF62n-E6mhdTdz_LAiA7-28" value="유저ID" style="text;html=1;align=center;verticalAlign=middle;resizable=0;points=[];autosize=1;strokeColor=none;fillColor=none;" vertex="1" parent="QF62n-E6mhdTdz_LAiA7-27">
          <mxGeometry y="30" width="50" height="20" as="geometry" />
        </mxCell>
        <mxCell id="QF62n-E6mhdTdz_LAiA7-29" value="작성완료시간" style="text;html=1;align=center;verticalAlign=middle;resizable=0;points=[];autosize=1;strokeColor=none;fillColor=none;" vertex="1" parent="QF62n-E6mhdTdz_LAiA7-27">
          <mxGeometry y="50" width="90" height="20" as="geometry" />
        </mxCell>
        <mxCell id="QF62n-E6mhdTdz_LAiA7-30" value="디자이너" style="text;html=1;align=center;verticalAlign=middle;resizable=0;points=[];autosize=1;strokeColor=none;fillColor=none;" vertex="1" parent="QF62n-E6mhdTdz_LAiA7-27">
          <mxGeometry y="75" width="60" height="20" as="geometry" />
        </mxCell>
        <mxCell id="QF62n-E6mhdTdz_LAiA7-31" value="미용실" style="text;html=1;align=center;verticalAlign=middle;resizable=0;points=[];autosize=1;strokeColor=none;fillColor=none;" vertex="1" parent="QF62n-E6mhdTdz_LAiA7-27">
          <mxGeometry x="5" y="100" width="50" height="20" as="geometry" />
        </mxCell>
        <mxCell id="QF62n-E6mhdTdz_LAiA7-32" value="내용" style="text;html=1;align=center;verticalAlign=middle;resizable=0;points=[];autosize=1;strokeColor=none;fillColor=none;" vertex="1" parent="QF62n-E6mhdTdz_LAiA7-27">
          <mxGeometry x="5" y="120" width="40" height="20" as="geometry" />
        </mxCell>
        <mxCell id="QF62n-E6mhdTdz_LAiA7-33" value="별점" style="text;html=1;align=center;verticalAlign=middle;resizable=0;points=[];autosize=1;strokeColor=none;fillColor=none;" vertex="1" parent="QF62n-E6mhdTdz_LAiA7-27">
          <mxGeometry x="5" y="140" width="40" height="20" as="geometry" />
        </mxCell>
        <mxCell id="QF62n-E6mhdTdz_LAiA7-35" value="쿠폰" style="swimlane;fillColor=#FFFFFF;" vertex="1" parent="1">
          <mxGeometry x="320" y="350" width="130" height="130" as="geometry" />
        </mxCell>
        <mxCell id="QF62n-E6mhdTdz_LAiA7-36" value="ID" style="text;html=1;align=center;verticalAlign=middle;resizable=0;points=[];autosize=1;strokeColor=none;fillColor=none;" vertex="1" parent="QF62n-E6mhdTdz_LAiA7-35">
          <mxGeometry x="15" y="30" width="30" height="20" as="geometry" />
        </mxCell>
        <mxCell id="QF62n-E6mhdTdz_LAiA7-49" style="edgeStyle=orthogonalEdgeStyle;rounded=0;orthogonalLoop=1;jettySize=auto;html=1;exitX=1;exitY=0.5;exitDx=0;exitDy=0;entryX=0.5;entryY=0;entryDx=0;entryDy=0;" edge="1" parent="1" source="QF62n-E6mhdTdz_LAiA7-38" target="QF62n-E6mhdTdz_LAiA7-43">
          <mxGeometry relative="1" as="geometry" />
        </mxCell>
        <mxCell id="QF62n-E6mhdTdz_LAiA7-53" style="edgeStyle=orthogonalEdgeStyle;rounded=0;orthogonalLoop=1;jettySize=auto;html=1;exitX=0;exitY=0.5;exitDx=0;exitDy=0;entryX=0.5;entryY=0;entryDx=0;entryDy=0;" edge="1" parent="1" source="QF62n-E6mhdTdz_LAiA7-38" target="QF62n-E6mhdTdz_LAiA7-50">
          <mxGeometry relative="1" as="geometry" />
        </mxCell>
        <mxCell id="QF62n-E6mhdTdz_LAiA7-38" value="디자이너" style="swimlane;fillColor=#FFFFFF;startSize=23;" vertex="1" parent="1">
          <mxGeometry x="55" y="550" width="200" height="200" as="geometry" />
        </mxCell>
        <mxCell id="QF62n-E6mhdTdz_LAiA7-40" value="디자이너 ID" style="text;html=1;align=center;verticalAlign=middle;resizable=0;points=[];autosize=1;strokeColor=none;fillColor=none;" vertex="1" parent="QF62n-E6mhdTdz_LAiA7-38">
          <mxGeometry y="30" width="80" height="20" as="geometry" />
        </mxCell>
        <mxCell id="QF62n-E6mhdTdz_LAiA7-41" value="이름" style="text;html=1;align=center;verticalAlign=middle;resizable=0;points=[];autosize=1;strokeColor=none;fillColor=none;" vertex="1" parent="QF62n-E6mhdTdz_LAiA7-38">
          <mxGeometry y="50" width="40" height="20" as="geometry" />
        </mxCell>
        <mxCell id="QF62n-E6mhdTdz_LAiA7-42" value="전화번호" style="text;html=1;align=center;verticalAlign=middle;resizable=0;points=[];autosize=1;strokeColor=none;fillColor=none;" vertex="1" parent="QF62n-E6mhdTdz_LAiA7-38">
          <mxGeometry y="70" width="60" height="20" as="geometry" />
        </mxCell>
        <mxCell id="QF62n-E6mhdTdz_LAiA7-39" value="회원등급" style="text;html=1;align=center;verticalAlign=middle;resizable=0;points=[];autosize=1;strokeColor=none;fillColor=none;" vertex="1" parent="1">
          <mxGeometry x="90" y="180" width="60" height="20" as="geometry" />
        </mxCell>
        <mxCell id="QF62n-E6mhdTdz_LAiA7-43" value="스타일 메뉴" style="swimlane;fillColor=#FFFFFF;" vertex="1" parent="1">
          <mxGeometry x="365" y="670" width="110" height="150" as="geometry" />
        </mxCell>
        <mxCell id="QF62n-E6mhdTdz_LAiA7-44" value="디자이너 이름" style="text;html=1;align=center;verticalAlign=middle;resizable=0;points=[];autosize=1;strokeColor=none;fillColor=none;" vertex="1" parent="QF62n-E6mhdTdz_LAiA7-43">
          <mxGeometry x="-5" y="30" width="90" height="20" as="geometry" />
        </mxCell>
        <mxCell id="QF62n-E6mhdTdz_LAiA7-45" value="스타일 이름" style="text;html=1;align=center;verticalAlign=middle;resizable=0;points=[];autosize=1;strokeColor=none;fillColor=none;" vertex="1" parent="QF62n-E6mhdTdz_LAiA7-43">
          <mxGeometry x="-5" y="55" width="80" height="20" as="geometry" />
        </mxCell>
        <mxCell id="QF62n-E6mhdTdz_LAiA7-46" value="가격" style="text;html=1;align=center;verticalAlign=middle;resizable=0;points=[];autosize=1;strokeColor=none;fillColor=none;" vertex="1" parent="QF62n-E6mhdTdz_LAiA7-43">
          <mxGeometry x="-5" y="75" width="40" height="20" as="geometry" />
        </mxCell>
        <mxCell id="QF62n-E6mhdTdz_LAiA7-47" value="소개" style="text;html=1;align=center;verticalAlign=middle;resizable=0;points=[];autosize=1;strokeColor=none;fillColor=none;" vertex="1" parent="QF62n-E6mhdTdz_LAiA7-43">
          <mxGeometry x="-5" y="100" width="40" height="20" as="geometry" />
        </mxCell>
        <mxCell id="QF62n-E6mhdTdz_LAiA7-48" value="사진" style="text;html=1;align=center;verticalAlign=middle;resizable=0;points=[];autosize=1;strokeColor=none;fillColor=none;" vertex="1" parent="QF62n-E6mhdTdz_LAiA7-43">
          <mxGeometry x="-5" y="120" width="40" height="20" as="geometry" />
        </mxCell>
        <mxCell id="QF62n-E6mhdTdz_LAiA7-50" value="근무 미용실" style="swimlane;fillColor=#FFFFFF;" vertex="1" parent="1">
          <mxGeometry x="-150" y="730" width="160" height="180" as="geometry" />
        </mxCell>
        <mxCell id="QF62n-E6mhdTdz_LAiA7-51" value="미용실 ID" style="text;html=1;align=center;verticalAlign=middle;resizable=0;points=[];autosize=1;strokeColor=none;fillColor=none;" vertex="1" parent="QF62n-E6mhdTdz_LAiA7-50">
          <mxGeometry x="-5" y="35" width="70" height="20" as="geometry" />
        </mxCell>
        <mxCell id="QF62n-E6mhdTdz_LAiA7-52" value="미용실 주소" style="text;html=1;align=center;verticalAlign=middle;resizable=0;points=[];autosize=1;strokeColor=none;fillColor=none;" vertex="1" parent="QF62n-E6mhdTdz_LAiA7-50">
          <mxGeometry x="-5" y="60" width="80" height="20" as="geometry" />
        </mxCell>
      </root>
    </mxGraphModel>
  </diagram>
</mxfile>
